<svg id="Layer_1" data-name="Layer 1" xmlns="http://www.w3.org/2000/svg" xmlns:xlink="http://www.w3.org/1999/xlink" viewBox="0 0 1920 1080"><defs><style>.cls-1{mask:url(#mask);filter:url(#luminosity-noclip-4);}.cls-2,.cls-4,.cls-6{mix-blend-mode:multiply;}.cls-2{fill:url(#New_Gradient_Swatch_copy_5);}.cls-3{mask:url(#mask-2);filter:url(#luminosity-noclip-5);}.cls-4{fill:url(#New_Gradient_Swatch_copy_5-2);}.cls-5{mask:url(#mask-3);filter:url(#luminosity-noclip-6);}.cls-6{fill:url(#New_Gradient_Swatch_copy_5-3);}.cls-7{mask:url(#mask-4);}.cls-8{opacity:0.8;fill:url(#New_Gradient_Swatch_copy_6);}.cls-9{mask:url(#mask-5);}.cls-10,.cls-12{opacity:0.42;}.cls-10{fill:url(#New_Gradient_Swatch_copy_6-2);}.cls-11{mask:url(#mask-6);}.cls-12{fill:url(#New_Gradient_Swatch_copy_6-3);}.cls-13{filter:url(#luminosity-noclip-3);}.cls-14{filter:url(#luminosity-noclip-2);}.cls-15{filter:url(#luminosity-noclip);}</style><filter id="luminosity-noclip" x="863.33" y="-8031" width="1023.17" height="32766" filterUnits="userSpaceOnUse" color-interpolation-filters="sRGB"><feFlood flood-color="#fff" result="bg"/><feBlend in="SourceGraphic" in2="bg"/></filter><mask id="mask" x="863.33" y="-8031" width="1023.17" height="32766" maskUnits="userSpaceOnUse"><g class="cls-15"/></mask><linearGradient id="New_Gradient_Swatch_copy_5" x1="1264.61" y1="-334.55" x2="1590.95" y2="305.83" gradientTransform="matrix(0.96, -0.29, 0.3, 1.03, 84.33, 1315.83)" gradientUnits="userSpaceOnUse"><stop offset="0" stop-color="#333"/><stop offset="0.33" stop-color="#b3b3b3"/><stop offset="1" stop-color="#fff"/></linearGradient><filter id="luminosity-noclip-2" x="-60.66" y="-8031" width="2041.97" height="32766" filterUnits="userSpaceOnUse" color-interpolation-filters="sRGB"><feFlood flood-color="#fff" result="bg"/><feBlend in="SourceGraphic" in2="bg"/></filter><mask id="mask-2" x="-60.66" y="-8031" width="2041.97" height="32766" maskUnits="userSpaceOnUse"><g class="cls-14"/></mask><linearGradient id="New_Gradient_Swatch_copy_5-2" x1="5697.93" y1="1426.16" x2="5882.2" y2="1111.26" gradientTransform="matrix(-1.16, -0.67, -0.67, 1.17, 8547.37, 2547.39)" xlink:href="#New_Gradient_Swatch_copy_5"/><filter id="luminosity-noclip-3" x="-169.24" y="-8031" width="1288.88" height="32766" filterUnits="userSpaceOnUse" color-interpolation-filters="sRGB"><feFlood flood-color="#fff" result="bg"/><feBlend in="SourceGraphic" in2="bg"/></filter><mask id="mask-3" x="-169.24" y="-8031" width="1288.88" height="32766" maskUnits="userSpaceOnUse"><g class="cls-13"/></mask><linearGradient id="New_Gradient_Swatch_copy_5-3" x1="7355.56" y1="2579.23" x2="7366.05" y2="3156.22" gradientTransform="matrix(-0.62, -0.26, -0.39, 0.93, 6039.25, 479.92)" xlink:href="#New_Gradient_Swatch_copy_5"/><filter id="luminosity-noclip-4" x="863.33" y="378.59" width="1023.17" height="754.41" filterUnits="userSpaceOnUse" color-interpolation-filters="sRGB"><feFlood flood-color="#fff" result="bg"/><feBlend in="SourceGraphic" in2="bg"/></filter><mask id="mask-4" x="863.33" y="378.59" width="1023.17" height="754.41" maskUnits="userSpaceOnUse"><g class="cls-1"><path class="cls-2" d="M915.7,1132.12c22.72,2.07,53.36-.18,75.56,0,196.74,1.62,600.33-17.66,815.38-5.58,125,7,66.29-223.14,64.77-265-4.15-114.36-.44-219.17-17.84-301-10.21-48-64-208.5-124.61-178.13-16.66,8.35-23.71,30.92-32.54,49.61-72.18,152.68-274.56-2.22-340.1,157.64-33.22,81.05,23.47,191-15.49,268.19-18.63,36.92-55.3,55.75-91.55,62-122.24,21-229.51-1.39-331.29,99.36-36.41,36-71.06,43.94-46.29,94.37C880.83,1132.12,885,1129.33,915.7,1132.12Z"/></g></mask><linearGradient id="New_Gradient_Swatch_copy_6" x1="1264.61" y1="-334.55" x2="1590.95" y2="305.83" gradientTransform="matrix(0.96, -0.29, 0.3, 1.03, 84.33, 1315.83)" gradientUnits="userSpaceOnUse"><stop offset="0" stop-color="#97d59a"/><stop offset="0.33" stop-color="#97d59a"/><stop offset="1" stop-color="#97d59a"/></linearGradient><filter id="luminosity-noclip-5" x="-60.66" y="-91.17" width="2041.97" height="593.99" filterUnits="userSpaceOnUse" color-interpolation-filters="sRGB"><feFlood flood-color="#fff" result="bg"/><feBlend in="SourceGraphic" in2="bg"/></filter><mask id="mask-5" x="-60.66" y="-91.17" width="2041.97" height="593.99" maskUnits="userSpaceOnUse"><g class="cls-3"><path class="cls-4" d="M1514.46-80.15c18.32-.14,443.84-22,452.41-3.8,21.75,46.13,20.71,19.68-15.34,75.13C1895,78.11,1884.38,113,1571.87,106.31c-174.26-3.71-213,74.51-263.52,155.45-160,256.5-313.62,307.51-425.82,156.85-72.28-97.06-154-171.81-440.67-114.85-243.24,48.34-445-60.15-473.1-79.59C-63.46,201.86-62.06,52.18-59.4-40c.75-26.2,708.06-33.8,731-34Z"/></g></mask><linearGradient id="New_Gradient_Swatch_copy_6-2" x1="5697.93" y1="1426.16" x2="5882.2" y2="1111.26" gradientTransform="matrix(-1.16, -0.67, -0.67, 1.17, 8547.37, 2547.39)" xlink:href="#New_Gradient_Swatch_copy_6"/><filter id="luminosity-noclip-6" x="-169.24" y="402.11" width="1288.88" height="802.61" filterUnits="userSpaceOnUse" color-interpolation-filters="sRGB"><feFlood flood-color="#fff" result="bg"/><feBlend in="SourceGraphic" in2="bg"/></filter><mask id="mask-6" x="-169.24" y="402.11" width="1288.88" height="802.61" maskUnits="userSpaceOnUse"><g class="cls-5"><path class="cls-6" d="M-3.09,439.52a69.87,69.87,0,0,0,4.78-9c14.51-31.95,46.77-38.88,58.69-11,28,65.41,85.87,127.8,181.21,77.2C387.66,419.17,540.85,385.88,520,622.79s25.24,409.07,193.44,341.65,158.26,213.75,284.7,193c86.51-14.16,151.34,43.11,107.4,45.92-57.13,3.66-119.73-1.53-148.5-1.41l-1036.59-3.39c-49.73-.16-89.65-45.51-89.66-101.66,0-121.55,15.08-320.79,32.22-418.95a200.38,200.38,0,0,1,28.33-73.49Z"/></g></mask><linearGradient id="New_Gradient_Swatch_copy_6-3" x1="7355.56" y1="2579.23" x2="7366.05" y2="3156.22" gradientTransform="matrix(-0.62, -0.26, -0.39, 0.93, 6039.25, 479.92)" xlink:href="#New_Gradient_Swatch_copy_6"/></defs><title>bg-2</title><g class="cls-7"><path class="cls-8" d="M915.7,1132.12c22.72,2.07,53.36-.18,75.56,0,196.74,1.62,600.33-17.66,815.38-5.58,125,7,66.29-223.14,64.77-265-4.15-114.36-.44-219.17-17.84-301-10.21-48-64-208.5-124.61-178.13-16.66,8.35-23.71,30.92-32.54,49.61-72.18,152.68-274.56-2.22-340.1,157.64-33.22,81.05,23.47,191-15.49,268.19-18.63,36.92-55.3,55.75-91.55,62-122.24,21-229.51-1.39-331.29,99.36-36.41,36-71.06,43.94-46.29,94.37C880.83,1132.12,885,1129.33,915.7,1132.12Z"/></g><g class="cls-9"><path class="cls-10" d="M1514.46-80.15c18.32-.14,443.84-22,452.41-3.8,21.75,46.13,20.71,19.68-15.34,75.13C1895,78.11,1884.38,113,1571.87,106.31c-174.26-3.71-213,74.51-263.52,155.45-160,256.5-313.62,307.51-425.82,156.85-72.28-97.06-154-171.81-440.67-114.85-243.24,48.34-445-60.15-473.1-79.59C-63.46,201.86-62.06,52.18-59.4-40c.75-26.2,708.06-33.8,731-34Z"/></g><g class="cls-11"><path class="cls-12" d="M-3.09,439.52a69.87,69.87,0,0,0,4.78-9c14.51-31.95,46.77-38.88,58.69-11,28,65.41,85.87,127.8,181.21,77.2C387.66,419.17,540.85,385.88,520,622.79s25.24,409.07,193.44,341.65,158.26,213.75,284.7,193c86.51-14.16,151.34,43.11,107.4,45.92-57.13,3.66-119.73-1.53-148.5-1.41l-1036.59-3.39c-49.73-.16-89.65-45.51-89.66-101.66,0-121.55,15.08-320.79,32.22-418.95a200.38,200.38,0,0,1,28.33-73.49Z"/></g></svg>