<svg id="Layer_1" data-name="Layer 1" xmlns="http://www.w3.org/2000/svg" xmlns:xlink="http://www.w3.org/1999/xlink" viewBox="0 0 1920 1080"><defs><style>.cls-1{mask:url(#mask);filter:url(#luminosity-noclip-2);}.cls-2{mix-blend-mode:multiply;fill:url(#New_Gradient_Swatch_copy_5);}.cls-3{fill:url(#New_Gradient_Swatch_copy_6);}.cls-4,.cls-5,.cls-7{opacity:0.42;}.cls-4{fill:url(#New_Gradient_Swatch_copy_6-2);}.cls-5{fill:url(#New_Gradient_Swatch_copy_6-3);}.cls-6{mask:url(#mask-2);}.cls-7{fill:url(#New_Gradient_Swatch_copy_6-4);}.cls-8{filter:url(#luminosity-noclip);}</style><filter id="luminosity-noclip" x="-60.66" y="-8031" width="2041.97" height="32766" filterUnits="userSpaceOnUse" color-interpolation-filters="sRGB"><feFlood flood-color="#fff" result="bg"/><feBlend in="SourceGraphic" in2="bg"/></filter><mask id="mask" x="-60.66" y="-8031" width="2041.97" height="32766" maskUnits="userSpaceOnUse"><g class="cls-8"/></mask><linearGradient id="New_Gradient_Swatch_copy_5" x1="5697.93" y1="1426.16" x2="5882.2" y2="1111.26" gradientTransform="matrix(-1.16, -0.67, -0.67, 1.17, 8547.37, 2547.39)" gradientUnits="userSpaceOnUse"><stop offset="0" stop-color="#333"/><stop offset="0.33" stop-color="#b3b3b3"/><stop offset="1" stop-color="#fff"/></linearGradient><linearGradient id="New_Gradient_Swatch_copy_6" x1="1714.5" y1="1087.12" x2="1754.26" y2="1087.12" gradientTransform="matrix(1, 0, 0, -1, 0, 1964)" gradientUnits="userSpaceOnUse"><stop offset="0" stop-color="#97d59a"/><stop offset="0.33" stop-color="#97d59a"/><stop offset="1" stop-color="#97d59a"/></linearGradient><linearGradient id="New_Gradient_Swatch_copy_6-2" x1="1716.14" y1="1022.57" x2="1779.28" y2="1022.57" xlink:href="#New_Gradient_Swatch_copy_6"/><linearGradient id="New_Gradient_Swatch_copy_6-3" x1="1738.82" y1="1062.56" x2="1807.11" y2="1062.56" xlink:href="#New_Gradient_Swatch_copy_6"/><filter id="luminosity-noclip-2" x="-60.66" y="-91.17" width="2041.97" height="593.99" filterUnits="userSpaceOnUse" color-interpolation-filters="sRGB"><feFlood flood-color="#fff" result="bg"/><feBlend in="SourceGraphic" in2="bg"/></filter><mask id="mask-2" x="-60.66" y="-91.17" width="2041.97" height="593.99" maskUnits="userSpaceOnUse"><g class="cls-1"><path class="cls-2" d="M1514.46-80.15c18.32-.14,443.84-22,452.41-3.8,21.75,46.13,20.71,19.68-15.34,75.13C1895,78.11,1884.38,113,1571.87,106.31c-174.26-3.71-213,74.51-263.52,155.45-160,256.5-313.62,307.51-425.82,156.85-72.28-97.06-154-171.81-440.67-114.85-243.24,48.34-445-60.15-473.1-79.59C-63.46,201.86-62.06,52.18-59.4-40c.75-26.2,708.06-33.8,731-34Z"/></g></mask><linearGradient id="New_Gradient_Swatch_copy_6-4" x1="5697.93" y1="1426.16" x2="5882.2" y2="1111.26" gradientTransform="matrix(-1.16, -0.67, -0.67, 1.17, 8547.37, 2547.39)" xlink:href="#New_Gradient_Swatch_copy_6"/></defs><title>bg-2</title><circle class="cls-3" cx="1734.38" cy="876.88" r="19.88"/><circle class="cls-4" cx="1747.71" cy="941.43" r="31.57"/><circle class="cls-5" cx="1772.97" cy="901.44" r="34.15"/><g class="cls-6"><path class="cls-7" d="M1514.46-80.15c18.32-.14,443.84-22,452.41-3.8,21.75,46.13,20.71,19.68-15.34,75.13C1895,78.11,1884.38,113,1571.87,106.31c-174.26-3.71-213,74.51-263.52,155.45-160,256.5-313.62,307.51-425.82,156.85-72.28-97.06-154-171.81-440.67-114.85-243.24,48.34-445-60.15-473.1-79.59C-63.46,201.86-62.06,52.18-59.4-40c.75-26.2,708.06-33.8,731-34Z"/></g></svg>