<svg id="Layer_1" data-name="Layer 1" xmlns="http://www.w3.org/2000/svg" xmlns:xlink="http://www.w3.org/1999/xlink" viewBox="0 0 1920 1080"><defs><style>.cls-1{mask:url(#mask);filter:url(#luminosity-noclip-6);}.cls-10,.cls-2,.cls-4,.cls-6,.cls-8{mix-blend-mode:multiply;}.cls-2{fill:url(#New_Gradient_Swatch_copy_5);}.cls-3{mask:url(#mask-2);filter:url(#luminosity-noclip-7);}.cls-4{fill:url(#New_Gradient_Swatch_copy_5-2);}.cls-5{mask:url(#mask-3);filter:url(#luminosity-noclip-8);}.cls-6{fill:url(#New_Gradient_Swatch_copy_5-3);}.cls-7{mask:url(#mask-4);filter:url(#luminosity-noclip-9);}.cls-8{fill:url(#New_Gradient_Swatch_copy_5-4);}.cls-9{mask:url(#mask-5);filter:url(#luminosity-noclip-10);}.cls-10{fill:url(#New_Gradient_Swatch_copy_5-5);}.cls-11{mask:url(#mask-6);}.cls-12{fill:url(#New_Gradient_Swatch_copy_6);}.cls-13{mask:url(#mask-7);}.cls-14{fill:url(#New_Gradient_Swatch_copy_6-2);}.cls-15{mask:url(#mask-8);}.cls-16{fill:url(#New_Gradient_Swatch_copy_6-3);}.cls-17{mask:url(#mask-9);}.cls-18{fill:url(#New_Gradient_Swatch_copy_6-4);}.cls-19{mask:url(#mask-10);}.cls-20{opacity:0.8;fill:url(#New_Gradient_Swatch_copy_6-5);}.cls-21{filter:url(#luminosity-noclip-5);}.cls-22{filter:url(#luminosity-noclip-4);}.cls-23{filter:url(#luminosity-noclip-3);}.cls-24{filter:url(#luminosity-noclip-2);}.cls-25{filter:url(#luminosity-noclip);}</style><filter id="luminosity-noclip" x="1.22" y="-8732" width="1448.93" height="32766" filterUnits="userSpaceOnUse" color-interpolation-filters="sRGB"><feFlood flood-color="#fff" result="bg"/><feBlend in="SourceGraphic" in2="bg"/></filter><mask id="mask" x="1.22" y="-8732" width="1448.93" height="32766" maskUnits="userSpaceOnUse"><g class="cls-25"/></mask><linearGradient id="New_Gradient_Swatch_copy_5" x1="1168.53" y1="1111.34" x2="1302.79" y2="881.92" gradientTransform="matrix(-1.15, 0.66, -0.63, -1.1, 2772.3, 1222.93)" gradientUnits="userSpaceOnUse"><stop offset="0" stop-color="#333"/><stop offset="0.33" stop-color="#b3b3b3"/><stop offset="1" stop-color="#fff"/></linearGradient><filter id="luminosity-noclip-2" x="-11.9" y="-8732" width="648.98" height="32766" filterUnits="userSpaceOnUse" color-interpolation-filters="sRGB"><feFlood flood-color="#fff" result="bg"/><feBlend in="SourceGraphic" in2="bg"/></filter><mask id="mask-2" x="-11.9" y="-8732" width="648.98" height="32766" maskUnits="userSpaceOnUse"><g class="cls-24"/></mask><linearGradient id="New_Gradient_Swatch_copy_5-2" x1="717.11" y1="930.06" x2="841.39" y2="82.04" gradientTransform="matrix(-0.54, -0.59, 0.74, -0.67, 192.76, 1622.63)" xlink:href="#New_Gradient_Swatch_copy_5"/><filter id="luminosity-noclip-3" x="-21.2" y="-8732" width="1001.66" height="32766" filterUnits="userSpaceOnUse" color-interpolation-filters="sRGB"><feFlood flood-color="#fff" result="bg"/><feBlend in="SourceGraphic" in2="bg"/></filter><mask id="mask-3" x="-21.2" y="-8732" width="1001.66" height="32766" maskUnits="userSpaceOnUse"><g class="cls-23"/></mask><linearGradient id="New_Gradient_Swatch_copy_5-3" x1="74.55" y1="848.59" x2="85.04" y2="1425.58" gradientTransform="matrix(-0.48, -0.2, -0.3, 0.71, 776.46, 316.58)" xlink:href="#New_Gradient_Swatch_copy_5"/><filter id="luminosity-noclip-4" x="794.58" y="-8732" width="1124.86" height="32766" filterUnits="userSpaceOnUse" color-interpolation-filters="sRGB"><feFlood flood-color="#fff" result="bg"/><feBlend in="SourceGraphic" in2="bg"/></filter><mask id="mask-4" x="794.58" y="-8732" width="1124.86" height="32766" maskUnits="userSpaceOnUse"><g class="cls-22"/></mask><linearGradient id="New_Gradient_Swatch_copy_5-4" x1="794.58" y1="740.14" x2="1919.43" y2="740.14" gradientTransform="matrix(1, 0, 0, 1, 0, 0)" xlink:href="#New_Gradient_Swatch_copy_5"/><filter id="luminosity-noclip-5" x="918.83" y="-8732" width="1023.17" height="32766" filterUnits="userSpaceOnUse" color-interpolation-filters="sRGB"><feFlood flood-color="#fff" result="bg"/><feBlend in="SourceGraphic" in2="bg"/></filter><mask id="mask-5" x="918.83" y="-8732" width="1023.17" height="32766" maskUnits="userSpaceOnUse"><g class="cls-21"/></mask><linearGradient id="New_Gradient_Swatch_copy_5-5" x1="1403.74" y1="494.13" x2="1730.09" y2="1134.51" gradientTransform="matrix(0.96, -0.29, 0.3, 1.03, -246.27, 494.59)" xlink:href="#New_Gradient_Swatch_copy_5"/><filter id="luminosity-noclip-6" x="1.22" y="704.32" width="1448.93" height="405.89" filterUnits="userSpaceOnUse" color-interpolation-filters="sRGB"><feFlood flood-color="#fff" result="bg"/><feBlend in="SourceGraphic" in2="bg"/></filter><mask id="mask-6" x="1.22" y="704.32" width="1448.93" height="405.89" maskUnits="userSpaceOnUse"><g class="cls-1"><path class="cls-2" d="M1118.34,1103.74c13-.13,314.86,9.81,321.17-2.93,16-32.36,14.94-14-10-52.07-39-59.76-46.17-83.87-268.14-75.39-123.77,4.73-150.34-49.2-185.18-104.87-110.42-176.42-218.88-210-300.41-103.84C623.3,833,564.34,886,361.52,850c-172.1-30.62-316.7,47.31-336.89,61.18-23.15,15.91-24,120-23.25,184.1C1.6,1113.44,503.7,1110,520,1109.85Z"/></g></mask><linearGradient id="New_Gradient_Swatch_copy_6" x1="1168.53" y1="1111.34" x2="1302.79" y2="881.92" gradientTransform="matrix(-1.15, 0.66, -0.63, -1.1, 2772.3, 1222.93)" gradientUnits="userSpaceOnUse"><stop offset="0" stop-color="#97d59a"/><stop offset="0.33" stop-color="#97d59a"/><stop offset="1" stop-color="#97d59a"/></linearGradient><filter id="luminosity-noclip-7" x="-11.9" y="286.98" width="648.98" height="815.82" filterUnits="userSpaceOnUse" color-interpolation-filters="sRGB"><feFlood flood-color="#fff" result="bg"/><feBlend in="SourceGraphic" in2="bg"/></filter><mask id="mask-7" x="-11.9" y="286.98" width="648.98" height="815.82" maskUnits="userSpaceOnUse"><g class="cls-3"><path class="cls-4" d="M-11.9,1086.86c13.64,14.63,539.71,20.46,579.57,12.09,94.8-19.91,98-57.25-24.74-148.47-119.6-88.9-103.23-170.63-26.25-339.39S525,304,293.94,366.44c-113.59,30.68-153.88-10.63-167.39-52.63C118,287.29,94.38,273.31,62.76,306L9.51,358.78A60,60,0,0,0-7.58,395.94C-15.91,487.21-4.53,786.69-5.26,860Z"/></g></mask><linearGradient id="New_Gradient_Swatch_copy_6-2" x1="717.11" y1="930.06" x2="841.39" y2="82.04" gradientTransform="matrix(-0.54, -0.59, 0.74, -0.67, 192.76, 1622.63)" xlink:href="#New_Gradient_Swatch_copy_6"/><filter id="luminosity-noclip-8" x="-21.2" y="483.34" width="1001.66" height="621.77" filterUnits="userSpaceOnUse" color-interpolation-filters="sRGB"><feFlood flood-color="#fff" result="bg"/><feBlend in="SourceGraphic" in2="bg"/></filter><mask id="mask-8" x="-21.2" y="483.34" width="1001.66" height="621.77" maskUnits="userSpaceOnUse"><g class="cls-5"><path class="cls-6" d="M105.71,512a54.81,54.81,0,0,0,3.68-6.9c11.16-24.57,36.2-29.8,45.56-8.31,22,50.48,67.14,98.74,141,60.07C409.2,497.65,528.11,472.51,512.68,655s21,315.25,151.41,263.86S787.75,1084,885.91,1068.51c67.16-10.62,117.72,33.72,83.59,35.74-44.37,2.63-93-1.58-115.37-1.58L48.8,1096.62c-38.63-.3-69.8-35.36-70-78.63-.42-93.64,10.65-247.1,23.64-322.67A152.4,152.4,0,0,1,24.21,638.8Z"/></g></mask><linearGradient id="New_Gradient_Swatch_copy_6-3" x1="74.55" y1="848.59" x2="85.04" y2="1425.58" gradientTransform="matrix(-0.48, -0.2, -0.3, 0.71, 776.46, 316.58)" xlink:href="#New_Gradient_Swatch_copy_6"/><filter id="luminosity-noclip-9" x="794.58" y="376.51" width="1124.86" height="727.26" filterUnits="userSpaceOnUse" color-interpolation-filters="sRGB"><feFlood flood-color="#fff" result="bg"/><feBlend in="SourceGraphic" in2="bg"/></filter><mask id="mask-9" x="794.58" y="376.51" width="1124.86" height="727.26" maskUnits="userSpaceOnUse"><g class="cls-7"><path class="cls-8" d="M1919.43,376.51c-26.57,9-51,19.87-72.37,32.5-128.12,75.86-129.18,192-188.66,290.94-30.09,50-84.51,100.78-174.08,117.62-55.6,10.45-116.38,6.19-174.22.47-72.72-7.2-145.17-16.55-218.94-18.18S940.78,804.93,879,827.44c-.26.1-33,22.11-33.22,22.33A170.79,170.79,0,0,0,826,878.92c-32.79,59.33-40.13,132-21.1,198.45l6.93,24.19,1106.43,2.21Z"/></g></mask><linearGradient id="New_Gradient_Swatch_copy_6-4" x1="794.58" y1="740.14" x2="1919.43" y2="740.14" gradientTransform="matrix(1, 0, 0, 1, 0, 0)" xlink:href="#New_Gradient_Swatch_copy_6"/><filter id="luminosity-noclip-10" x="918.83" y="369.59" width="1023.17" height="754.41" filterUnits="userSpaceOnUse" color-interpolation-filters="sRGB"><feFlood flood-color="#fff" result="bg"/><feBlend in="SourceGraphic" in2="bg"/></filter><mask id="mask-10" x="918.83" y="369.59" width="1023.17" height="754.41" maskUnits="userSpaceOnUse"><g class="cls-9"><path class="cls-10" d="M971.2,1123.12c22.72,2.07,53.36-.18,75.56,0,196.74,1.62,600.33-17.66,815.38-5.58,125,7,66.29-223.14,64.77-265-4.15-114.36-.44-219.17-17.84-301-10.21-48-64-208.5-124.61-178.13-16.66,8.35-23.71,30.92-32.54,49.61-72.18,152.68-274.56-2.22-340.1,157.64-33.22,81.05,23.47,191-15.49,268.19-18.63,36.92-55.3,55.75-91.55,62-122.24,21-229.51-1.39-331.29,99.36-36.41,36-71.06,43.94-46.29,94.37C936.33,1123.12,940.48,1120.33,971.2,1123.12Z"/></g></mask><linearGradient id="New_Gradient_Swatch_copy_6-5" x1="1403.74" y1="494.13" x2="1730.09" y2="1134.51" gradientTransform="matrix(0.96, -0.29, 0.3, 1.03, -246.27, 494.59)" xlink:href="#New_Gradient_Swatch_copy_6"/></defs><title>green-bg</title><g class="cls-11"><path class="cls-12" d="M1118.34,1103.74c13-.13,314.86,9.81,321.17-2.93,16-32.36,14.94-14-10-52.07-39-59.76-46.17-83.87-268.14-75.39-123.77,4.73-150.34-49.2-185.18-104.87-110.42-176.42-218.88-210-300.41-103.84C623.3,833,564.34,886,361.52,850c-172.1-30.62-316.7,47.31-336.89,61.18-23.15,15.91-24,120-23.25,184.1C1.6,1113.44,503.7,1110,520,1109.85Z"/></g><g class="cls-13"><path class="cls-14" d="M-11.9,1086.86c13.64,14.63,539.71,20.46,579.57,12.09,94.8-19.91,98-57.25-24.74-148.47-119.6-88.9-103.23-170.63-26.25-339.39S525,304,293.94,366.44c-113.59,30.68-153.88-10.63-167.39-52.63C118,287.29,94.38,273.31,62.76,306L9.51,358.78A60,60,0,0,0-7.58,395.94C-15.91,487.21-4.53,786.69-5.26,860Z"/></g><g class="cls-15"><path class="cls-16" d="M105.71,512a54.81,54.81,0,0,0,3.68-6.9c11.16-24.57,36.2-29.8,45.56-8.31,22,50.48,67.14,98.74,141,60.07C409.2,497.65,528.11,472.51,512.68,655s21,315.25,151.41,263.86S787.75,1084,885.91,1068.51c67.16-10.62,117.72,33.72,83.59,35.74-44.37,2.63-93-1.58-115.37-1.58L48.8,1096.62c-38.63-.3-69.8-35.36-70-78.63-.42-93.64,10.65-247.1,23.64-322.67A152.4,152.4,0,0,1,24.21,638.8Z"/></g><g class="cls-17"><path class="cls-18" d="M1919.43,376.51c-26.57,9-51,19.87-72.37,32.5-128.12,75.86-129.18,192-188.66,290.94-30.09,50-84.51,100.78-174.08,117.62-55.6,10.45-116.38,6.19-174.22.47-72.72-7.2-145.17-16.55-218.94-18.18S940.78,804.93,879,827.44c-.26.1-33,22.11-33.22,22.33A170.79,170.79,0,0,0,826,878.92c-32.79,59.33-40.13,132-21.1,198.45l6.93,24.19,1106.43,2.21Z"/></g><g class="cls-19"><path class="cls-20" d="M971.2,1123.12c22.72,2.07,53.36-.18,75.56,0,196.74,1.62,600.33-17.66,815.38-5.58,125,7,66.29-223.14,64.77-265-4.15-114.36-.44-219.17-17.84-301-10.21-48-64-208.5-124.61-178.13-16.66,8.35-23.71,30.92-32.54,49.61-72.18,152.68-274.56-2.22-340.1,157.64-33.22,81.05,23.47,191-15.49,268.19-18.63,36.92-55.3,55.75-91.55,62-122.24,21-229.51-1.39-331.29,99.36-36.41,36-71.06,43.94-46.29,94.37C936.33,1123.12,940.48,1120.33,971.2,1123.12Z"/></g></svg>