<?xml version="1.0" encoding="utf-8"?>
<!-- Generator: Adobe Illustrator 23.0.2, SVG Export Plug-In . SVG Version: 6.00 Build 0)  -->
<svg version="1.1" id="Layer_1" xmlns="http://www.w3.org/2000/svg" xmlns:xlink="http://www.w3.org/1999/xlink" x="0px" y="0px"
	 viewBox="0 0 1920 1080" style="enable-background:new 0 0 1920 1080;" xml:space="preserve">
<style type="text/css">
	.st0{fill:url(#SVGID_1_);}
	.st1{fill:url(#SVGID_2_);}
	.st2{fill:url(#SVGID_3_);}
	.st3{fill:url(#SVGID_4_);}
	.st4{opacity:0.8;fill:url(#SVGID_5_);enable-background:new    ;}
</style>
<title>Artboard 1</title>
<g>
	
		<linearGradient id="SVGID_1_" gradientUnits="userSpaceOnUse" x1="1171.8099" y1="-10.9122" x2="1292.52" y2="195.3679" gradientTransform="matrix(-1.15 0.66 0.63 1.1 2091.9001 34.93)">
		<stop  offset="0" style="stop-color:#D5C897"/>
		<stop  offset="0.33" style="stop-color:#D5C897"/>
		<stop  offset="1" style="stop-color:#D5C897"/>
	</linearGradient>
	<path class="st0" d="M1124.7,1093.8c13.1-0.1,316.6,8.8,323-2.6c16.1-29.1,15-12.5-10-46.8c-39.3-53.7-46.5-75.4-269.7-67.7
		c-124.5,4.3-151.2-44.2-186.2-94.2c-111-158.5-220.1-188.6-302.1-93.3c-52.8,61.4-112.1,109-316,76.6
		c-173.1-27.5-318.5,42.5-338.8,55C1.6,935.1,0.8,1028.5,1.5,1086.1c0.2,16.3,505.1,13.3,521.5,13.1L1124.7,1093.8z"/>
</g>
<g>
	
		<linearGradient id="SVGID_2_" gradientUnits="userSpaceOnUse" x1="679.0113" y1="180.5926" x2="798.1412" y2="993.4926" gradientTransform="matrix(-0.54 -0.59 -0.74 0.67 991.96 899.03)">
		<stop  offset="0" style="stop-color:#D5C897"/>
		<stop  offset="0.33" style="stop-color:#D5C897"/>
		<stop  offset="1" style="stop-color:#D5C897"/>
	</linearGradient>
	<path class="st1" d="M-11.9,1078.6c13.7,13.1,542.7,18.4,582.8,10.9c95.3-17.9,98.6-51.4-24.9-133.3
		c-120.3-79.8-103.8-153.2-26.4-304.8s8.3-275.8-224-219.7c-114.2,27.6-154.7-9.5-168.3-47.3c-8.6-23.8-32.3-36.4-64.2-7L9.7,424.7
		C0,433.3-6.2,445.2-7.5,458.1c-8.4,82,3.1,350.9,2.3,416.7L-11.9,1078.6z"/>
</g>
<g>
	
		<linearGradient id="SVGID_3_" gradientUnits="userSpaceOnUse" x1="60.4818" y1="207.2262" x2="70.2018" y2="-327.2838" gradientTransform="matrix(-0.48 -0.2 0.3 -0.71 452.46 1083.38)">
		<stop  offset="0" style="stop-color:#D5C897"/>
		<stop  offset="0.33" style="stop-color:#D5C897"/>
		<stop  offset="1" style="stop-color:#D5C897"/>
	</linearGradient>
	<path class="st2" d="M106.4,562.4c1.4-2,2.6-4,3.7-6.2c11.2-22.1,36.4-26.8,45.8-7.5c22.1,45.3,67.5,88.7,141.8,54
		c113.9-53.2,233.4-75.8,217.9,88.1s21.1,283.1,152.3,237s124.3,148.3,223.1,134.4c67.5-9.5,118.4,30.3,84.1,32.1
		c-44.6,2.4-93.5-1.4-116-1.4l-809.8-5.4c-38.8-0.3-70.2-31.8-70.4-70.6C-21.6,932.7-10.5,794.8,2.6,727c3.5-18.3,11-35.6,21.9-50.8
		L106.4,562.4z"/>
</g>
<g>
	
		<linearGradient id="SVGID_4_" gradientUnits="userSpaceOnUse" x1="799.1956" y1="312.795" x2="1930.3101" y2="312.795" gradientTransform="matrix(1 0 0 -1 0 1080)">
		<stop  offset="0" style="stop-color:#D5C897"/>
		<stop  offset="0.33" style="stop-color:#D5C897"/>
		<stop  offset="1" style="stop-color:#D5C897"/>
	</linearGradient>
	<path class="st3" d="M1930.3,440.7c-26.7,8.1-51.3,17.8-72.8,29.2c-128.8,68.1-129.9,172.4-189.7,261.3
		c-30.3,44.9-85,90.5-175,105.6c-55.9,9.4-117,5.6-175.2,0.4c-73.1-6.5-146-14.9-220.2-16.3s-151.2,4.6-213.3,24.8
		c-0.3,0.1-33.2,19.9-33.4,20c-7.6,8-14.2,16.8-19.9,26.2c-33,53.3-40.3,118.5-21.2,178.2l7,21.7l1112.6,2L1930.3,440.7z"/>
</g>
<g>
	
		<linearGradient id="SVGID_5_" gradientUnits="userSpaceOnUse" x1="1391.7506" y1="578.9672" x2="1718.2106" y2="-61.6328" gradientTransform="matrix(0.96 -0.29 -0.3 -1.03 77.73 1606.99)">
		<stop  offset="0" style="stop-color:#D5C897"/>
		<stop  offset="0.33" style="stop-color:#D5C897"/>
		<stop  offset="1" style="stop-color:#D5C897"/>
	</linearGradient>
	<path class="st4" d="M976.8,1111.2c22.8,1.8,53.7-0.2,76,0c197.8,1.4,603.7-15.9,820-5c125.7,6.3,66.7-200.4,65.1-238
		c-4.2-102.7-0.4-196.8-17.9-270.3c-10.3-43.1-64.4-187.2-125.3-160c-16.8,7.5-23.8,27.8-32.7,44.5c-72.6,137.1-276.1-2-342,141.6
		c-33.4,72.8,23.6,171.5-15.6,240.8c-18.7,33.2-55.6,50.1-92.1,55.7c-122.9,18.8-230.8-1.2-333.2,89.2
		c-36.6,32.4-71.5,39.5-46.5,84.8C941.7,1111.2,945.9,1108.7,976.8,1111.2z"/>
</g>
</svg>
