<svg id="Layer_1" data-name="Layer 1" xmlns="http://www.w3.org/2000/svg" xmlns:xlink="http://www.w3.org/1999/xlink" viewBox="0 0 1920 1080"><defs><style>.cls-1{mask:url(#mask);filter:url(#luminosity-noclip-6);}.cls-10,.cls-2,.cls-4,.cls-6,.cls-8{mix-blend-mode:multiply;}.cls-2{fill:url(#New_Gradient_Swatch_copy_5);}.cls-3{mask:url(#mask-2);filter:url(#luminosity-noclip-7);}.cls-4{fill:url(#New_Gradient_Swatch_copy_5-2);}.cls-5{mask:url(#mask-3);filter:url(#luminosity-noclip-8);}.cls-6{fill:url(#New_Gradient_Swatch_copy_5-3);}.cls-7{mask:url(#mask-4);filter:url(#luminosity-noclip-9);}.cls-8{fill:url(#New_Gradient_Swatch_copy_5-4);}.cls-9{mask:url(#mask-5);filter:url(#luminosity-noclip-10);}.cls-10{fill:url(#New_Gradient_Swatch_copy_5-5);}.cls-11{mask:url(#mask-6);}.cls-12{fill:url(#New_Gradient_Swatch_copy_2);}.cls-13{mask:url(#mask-7);}.cls-14{fill:url(#New_Gradient_Swatch_copy_2-2);}.cls-15{mask:url(#mask-8);}.cls-16{fill:url(#New_Gradient_Swatch_copy_2-3);}.cls-17{mask:url(#mask-9);}.cls-18{fill:url(#New_Gradient_Swatch_copy_2-4);}.cls-19{mask:url(#mask-10);}.cls-20{opacity:0.8;fill:url(#New_Gradient_Swatch_copy_2-5);}.cls-21{filter:url(#luminosity-noclip-5);}.cls-22{filter:url(#luminosity-noclip-4);}.cls-23{filter:url(#luminosity-noclip-3);}.cls-24{filter:url(#luminosity-noclip-2);}.cls-25{filter:url(#luminosity-noclip);}</style><filter id="luminosity-noclip" x="-2.78" y="-8732" width="1448.93" height="32766" filterUnits="userSpaceOnUse" color-interpolation-filters="sRGB"><feFlood flood-color="#fff" result="bg"/><feBlend in="SourceGraphic" in2="bg"/></filter><mask id="mask" x="-2.78" y="-8732" width="1448.93" height="32766" maskUnits="userSpaceOnUse"><g class="cls-25"/></mask><linearGradient id="New_Gradient_Swatch_copy_5" x1="1177.75" y1="1102.29" x2="1297.79" y2="897.16" gradientTransform="matrix(-1.15, 0.66, -0.63, -1.1, 2772.3, 1222.93)" gradientUnits="userSpaceOnUse"><stop offset="0" stop-color="#333"/><stop offset="0.33" stop-color="#b3b3b3"/><stop offset="1" stop-color="#fff"/></linearGradient><filter id="luminosity-noclip-2" x="-15.9" y="-8732" width="648.98" height="32766" filterUnits="userSpaceOnUse" color-interpolation-filters="sRGB"><feFlood flood-color="#fff" result="bg"/><feBlend in="SourceGraphic" in2="bg"/></filter><mask id="mask-2" x="-15.9" y="-8732" width="648.98" height="32766" maskUnits="userSpaceOnUse"><g class="cls-24"/></mask><linearGradient id="New_Gradient_Swatch_copy_5-2" x1="699.34" y1="900.6" x2="817.81" y2="92.24" gradientTransform="matrix(-0.54, -0.59, 0.74, -0.67, 192.76, 1622.63)" xlink:href="#New_Gradient_Swatch_copy_5"/><filter id="luminosity-noclip-3" x="-25.2" y="-8732" width="1001.66" height="32766" filterUnits="userSpaceOnUse" color-interpolation-filters="sRGB"><feFlood flood-color="#fff" result="bg"/><feBlend in="SourceGraphic" in2="bg"/></filter><mask id="mask-3" x="-25.2" y="-8732" width="1001.66" height="32766" maskUnits="userSpaceOnUse"><g class="cls-23"/></mask><linearGradient id="New_Gradient_Swatch_copy_5-3" x1="79.21" y1="864.98" x2="88.87" y2="1396.5" gradientTransform="matrix(-0.48, -0.2, -0.3, 0.71, 776.46, 316.58)" xlink:href="#New_Gradient_Swatch_copy_5"/><filter id="luminosity-noclip-4" x="790.58" y="-8732" width="1124.86" height="32766" filterUnits="userSpaceOnUse" color-interpolation-filters="sRGB"><feFlood flood-color="#fff" result="bg"/><feBlend in="SourceGraphic" in2="bg"/></filter><mask id="mask-4" x="790.58" y="-8732" width="1124.86" height="32766" maskUnits="userSpaceOnUse"><g class="cls-22"/></mask><linearGradient id="New_Gradient_Swatch_copy_5-4" x1="790.58" y1="758.67" x2="1915.43" y2="758.67" gradientTransform="matrix(1, 0, 0, 1, 0, 0)" xlink:href="#New_Gradient_Swatch_copy_5"/><filter id="luminosity-noclip-5" x="914.83" y="-8732" width="1023.17" height="32766" filterUnits="userSpaceOnUse" color-interpolation-filters="sRGB"><feFlood flood-color="#fff" result="bg"/><feBlend in="SourceGraphic" in2="bg"/></filter><mask id="mask-5" x="914.83" y="-8732" width="1023.17" height="32766" maskUnits="userSpaceOnUse"><g class="cls-21"/></mask><linearGradient id="New_Gradient_Swatch_copy_5-5" x1="1385.75" y1="490.01" x2="1710.39" y2="1127.04" gradientTransform="matrix(0.96, -0.29, 0.3, 1.03, -246.27, 494.59)" xlink:href="#New_Gradient_Swatch_copy_5"/><filter id="luminosity-noclip-6" x="-2.78" y="726.68" width="1448.93" height="362.47" filterUnits="userSpaceOnUse" color-interpolation-filters="sRGB"><feFlood flood-color="#fff" result="bg"/><feBlend in="SourceGraphic" in2="bg"/></filter><mask id="mask-6" x="-2.78" y="726.68" width="1448.93" height="362.47" maskUnits="userSpaceOnUse"><g class="cls-1"><path class="cls-2" d="M1114.34,1083.38c13-.12,314.86,8.76,321.17-2.62,16-28.9,14.94-12.46-10-46.5-39-53.37-46.17-74.9-268.14-67.32-123.77,4.22-150.34-43.94-185.18-93.66C861.8,715.73,753.34,685.74,671.81,780.55,619.3,841.63,560.34,889,357.52,856.73,185.42,829.38,40.82,899,20.63,911.37c-23.15,14.21-24,107.16-23.25,164.41.22,16.26,502.32,13.2,518.58,13Z"/></g></mask><linearGradient id="New_Gradient_Swatch_copy_2" x1="1177.75" y1="1102.29" x2="1297.79" y2="897.16" gradientTransform="matrix(-1.15, 0.66, -0.63, -1.1, 2772.3, 1222.93)" gradientUnits="userSpaceOnUse"><stop offset="0" stop-color="#d59797"/><stop offset="0.33" stop-color="#d59797"/><stop offset="1" stop-color="#d59797"/></linearGradient><filter id="luminosity-noclip-7" x="-15.9" y="353.98" width="648.98" height="728.56" filterUnits="userSpaceOnUse" color-interpolation-filters="sRGB"><feFlood flood-color="#fff" result="bg"/><feBlend in="SourceGraphic" in2="bg"/></filter><mask id="mask-7" x="-15.9" y="353.98" width="648.98" height="728.56" maskUnits="userSpaceOnUse"><g class="cls-3"><path class="cls-4" d="M-15.9,1068.3c13.64,13.07,539.71,18.27,579.57,10.8,94.8-17.78,98-51.12-24.74-132.59-119.6-79.39-103.23-152.38-26.25-303.09S521,369.21,289.94,424.94c-113.59,27.4-153.88-9.5-167.39-47C114,354.25,90.38,341.77,58.76,371L5.51,418.1a51.29,51.29,0,0,0-17.09,33.19c-8.33,81.5,3.05,349,2.32,414.42Z"/></g></mask><linearGradient id="New_Gradient_Swatch_copy_2-2" x1="699.34" y1="900.6" x2="817.81" y2="92.24" gradientTransform="matrix(-0.54, -0.59, 0.74, -0.67, 192.76, 1622.63)" xlink:href="#New_Gradient_Swatch_copy_2"/><filter id="luminosity-noclip-8" x="-25.2" y="529.34" width="1001.66" height="555.27" filterUnits="userSpaceOnUse" color-interpolation-filters="sRGB"><feFlood flood-color="#fff" result="bg"/><feBlend in="SourceGraphic" in2="bg"/></filter><mask id="mask-8" x="-25.2" y="529.34" width="1001.66" height="555.27" maskUnits="userSpaceOnUse"><g class="cls-5"><path class="cls-6" d="M101.71,555a47.16,47.16,0,0,0,3.68-6.15c11.16-21.94,36.2-26.62,45.56-7.43,22,45.09,67.14,88.19,141,53.65,113.22-52.91,232.13-75.36,216.7,87.58s21,281.53,151.41,235.64,123.66,147.53,221.82,133.67c67.16-9.49,117.72,30.11,83.59,31.91-44.37,2.35-93-1.41-115.37-1.41L44.8,1077a70.5,70.5,0,0,1-70-70.22c-.42-83.63,10.65-220.67,23.64-288.15a127.87,127.87,0,0,1,21.76-50.49Z"/></g></mask><linearGradient id="New_Gradient_Swatch_copy_2-3" x1="79.21" y1="864.98" x2="88.87" y2="1396.5" gradientTransform="matrix(-0.48, -0.2, -0.3, 0.71, 776.46, 316.58)" xlink:href="#New_Gradient_Swatch_copy_2"/><filter id="luminosity-noclip-9" x="790.58" y="433.94" width="1124.86" height="649.47" filterUnits="userSpaceOnUse" color-interpolation-filters="sRGB"><feFlood flood-color="#fff" result="bg"/><feBlend in="SourceGraphic" in2="bg"/></filter><mask id="mask-9" x="790.58" y="433.94" width="1124.86" height="649.47" maskUnits="userSpaceOnUse"><g class="cls-7"><path class="cls-8" d="M1915.43,433.94c-26.57,8-51,17.74-72.37,29-128.12,67.75-129.18,171.5-188.66,259.82-30.09,44.67-84.51,90-174.08,105-55.6,9.33-116.38,5.53-174.22.42-72.72-6.43-145.17-14.78-218.94-16.24S936.78,816.53,875,836.63c-.26.09-33,19.75-33.22,19.94a153.23,153.23,0,0,0-19.8,26c-32.79,53-40.13,117.88-21.1,177.21l6.93,21.61,1106.43,2Z"/></g></mask><linearGradient id="New_Gradient_Swatch_copy_2-4" x1="790.58" y1="758.67" x2="1915.43" y2="758.67" gradientTransform="matrix(1, 0, 0, 1, 0, 0)" xlink:href="#New_Gradient_Swatch_copy_2"/><filter id="luminosity-noclip-10" x="914.83" y="427.76" width="1023.17" height="673.71" filterUnits="userSpaceOnUse" color-interpolation-filters="sRGB"><feFlood flood-color="#fff" result="bg"/><feBlend in="SourceGraphic" in2="bg"/></filter><mask id="mask-10" x="914.83" y="427.76" width="1023.17" height="673.71" maskUnits="userSpaceOnUse"><g class="cls-9"><path class="cls-10" d="M967.2,1100.69c22.72,1.84,53.36-.16,75.56,0,196.74,1.44,600.33-15.78,815.38-5,125,6.27,66.29-199.28,64.77-236.65-4.15-102.13-.44-195.72-17.84-268.83-10.21-42.91-64-186.2-124.61-159.08-16.66,7.45-23.71,27.61-32.54,44.3-72.18,136.35-274.56-2-340.1,140.78-33.22,72.38,23.47,170.58-15.49,239.51-18.63,33-55.3,49.78-91.55,55.33-122.24,18.72-229.51-1.23-331.29,88.74-36.41,32.19-71.06,39.24-46.29,84.27C932.33,1100.69,936.48,1098.2,967.2,1100.69Z"/></g></mask><linearGradient id="New_Gradient_Swatch_copy_2-5" x1="1385.75" y1="490.01" x2="1710.39" y2="1127.04" gradientTransform="matrix(0.96, -0.29, 0.3, 1.03, -246.27, 494.59)" xlink:href="#New_Gradient_Swatch_copy_2"/></defs><title>Artboard 1</title><g class="cls-11"><path class="cls-12" d="M1114.34,1083.38c13-.12,314.86,8.76,321.17-2.62,16-28.9,14.94-12.46-10-46.5-39-53.37-46.17-74.9-268.14-67.32-123.77,4.22-150.34-43.94-185.18-93.66C861.8,715.73,753.34,685.74,671.81,780.55,619.3,841.63,560.34,889,357.52,856.73,185.42,829.38,40.82,899,20.63,911.37c-23.15,14.21-24,107.16-23.25,164.41.22,16.26,502.32,13.2,518.58,13Z"/></g><g class="cls-13"><path class="cls-14" d="M-15.9,1068.3c13.64,13.07,539.71,18.27,579.57,10.8,94.8-17.78,98-51.12-24.74-132.59-119.6-79.39-103.23-152.38-26.25-303.09S521,369.21,289.94,424.94c-113.59,27.4-153.88-9.5-167.39-47C114,354.25,90.38,341.77,58.76,371L5.51,418.1a51.29,51.29,0,0,0-17.09,33.19c-8.33,81.5,3.05,349,2.32,414.42Z"/></g><g class="cls-15"><path class="cls-16" d="M101.71,555a47.16,47.16,0,0,0,3.68-6.15c11.16-21.94,36.2-26.62,45.56-7.43,22,45.09,67.14,88.19,141,53.65,113.22-52.91,232.13-75.36,216.7,87.58s21,281.53,151.41,235.64,123.66,147.53,221.82,133.67c67.16-9.49,117.72,30.11,83.59,31.91-44.37,2.35-93-1.41-115.37-1.41L44.8,1077a70.5,70.5,0,0,1-70-70.22c-.42-83.63,10.65-220.67,23.64-288.15a127.87,127.87,0,0,1,21.76-50.49Z"/></g><g class="cls-17"><path class="cls-18" d="M1915.43,433.94c-26.57,8-51,17.74-72.37,29-128.12,67.75-129.18,171.5-188.66,259.82-30.09,44.67-84.51,90-174.08,105-55.6,9.33-116.38,5.53-174.22.42-72.72-6.43-145.17-14.78-218.94-16.24S936.78,816.53,875,836.63c-.26.09-33,19.75-33.22,19.94a153.23,153.23,0,0,0-19.8,26c-32.79,53-40.13,117.88-21.1,177.21l6.93,21.61,1106.43,2Z"/></g><g class="cls-19"><path class="cls-20" d="M967.2,1100.69c22.72,1.84,53.36-.16,75.56,0,196.74,1.44,600.33-15.78,815.38-5,125,6.27,66.29-199.28,64.77-236.65-4.15-102.13-.44-195.72-17.84-268.83-10.21-42.91-64-186.2-124.61-159.08-16.66,7.45-23.71,27.61-32.54,44.3-72.18,136.35-274.56-2-340.1,140.78-33.22,72.38,23.47,170.58-15.49,239.51-18.63,33-55.3,49.78-91.55,55.33-122.24,18.72-229.51-1.23-331.29,88.74-36.41,32.19-71.06,39.24-46.29,84.27C932.33,1100.69,936.48,1098.2,967.2,1100.69Z"/></g></svg>